<svg width="32" height="32" viewBox="0 0 32 32" fill="none" xmlns="http://www.w3.org/2000/svg">
<path d="M30 4.338C30 3.04885 28.9512 2 27.662 2C26.6624 2 25.8099 2.63124 25.4759 3.51492H12.8014C12.4674 2.63124 11.615 2 10.6158 2C9.32668 2 8.27784 3.04885 8.27784 4.338C8.27784 4.66825 8.34753 4.98227 8.47158 5.26743L5.25459 8.50378C4.97291 8.38336 4.66317 8.31633 4.338 8.31633C3.04885 8.31633 2 9.36457 2 10.6543C2 11.6369 2.61056 12.4787 3.47174 12.824V25.4912C2.61056 25.8365 2 26.6785 2 27.6614C2 28.9506 3.04885 30 4.338 30C5.32101 30 6.16301 29.389 6.50826 28.5277H19.2139C19.5591 29.389 20.4012 30 21.3842 30C22.6733 30 23.7222 28.9506 23.7222 27.6614C23.7222 27.3315 23.6527 27.0179 23.5289 26.733L26.7458 23.4969C27.0273 23.6172 27.3369 23.6842 27.662 23.6842C28.9512 23.6842 30 22.6348 30 21.3457C30 20.4223 29.4606 19.6244 28.6817 19.2446V6.43911C29.4606 6.05925 30 5.26132 30 4.338ZM12.8014 20.5226C12.5898 19.9625 12.1701 19.5055 11.6361 19.2448V11.52H19.2138C19.4514 12.1131 19.9245 12.5863 20.5179 12.8241V20.5226H12.8014ZM5.2552 25.5107C5.23851 25.5036 5.22113 25.4979 5.20426 25.4912V12.824C5.79744 12.5863 6.27066 12.113 6.50834 11.52H9.90414V19.1188C8.96208 19.4208 8.27784 20.3047 8.27784 21.3457C8.27784 21.6758 8.34749 21.9899 8.47155 22.275L5.2552 25.5107ZM9.90414 6.5649V9.78808H6.5083C6.49977 9.76681 6.49171 9.7454 6.48258 9.72443L9.69892 6.48873C9.76577 6.51733 9.83434 6.54252 9.90414 6.5649ZM22.2504 25.4912V22.2551H25.5075C25.5105 22.2621 25.5144 22.2688 25.5175 22.2758L22.3013 25.5108C22.2846 25.5037 22.2673 25.498 22.2504 25.4912ZM25.4758 20.5226H22.2504V12.824C23.1116 12.4787 23.7222 11.6369 23.7222 10.6543C23.7222 10.3276 23.6544 10.0167 23.5329 9.73411L26.7545 6.49323C26.8181 6.52007 26.8835 6.54352 26.9497 6.56482V19.1188C26.27 19.3368 25.7268 19.8583 25.4758 20.5226ZM12.77 5.24685H25.5073C25.5116 5.25707 25.5172 5.26664 25.5217 5.27682L22.3102 8.50839C22.026 8.38534 21.7131 8.31633 21.3842 8.31633C20.4008 8.31633 19.559 8.92689 19.2139 9.78808H11.6367V6.43854C12.1433 6.19115 12.5492 5.76818 12.77 5.24685ZM19.2136 26.7957H6.50848C6.49992 26.7744 6.49186 26.753 6.48272 26.732L9.69935 23.4966C9.98099 23.6171 10.2907 23.6842 10.6158 23.6842C11.5827 23.6842 12.4143 23.094 12.7697 22.2551H20.5185V25.4909C19.9248 25.7285 19.4513 26.2021 19.2136 26.7957Z" fill="#030E31"/>
</svg>
