<svg width="32" height="32" viewBox="0 0 32 32" fill="none" xmlns="http://www.w3.org/2000/svg">
<path d="M7.21648 29.2447V28.619C7.21648 28.2019 6.88602 27.8637 6.47838 27.8637H5.56302L8.62472 24.7308C8.91297 24.4359 8.91297 23.9577 8.62472 23.6627L8.19325 23.2212C7.905 22.9263 7.43766 22.9263 7.14941 23.2212L4.0877 26.3541V25.4118C4.0877 24.9947 3.75725 24.6565 3.3496 24.6565H2.7381C2.33046 24.6565 2 24.9947 2 25.4118V29.2447C2 29.6619 2.33046 30 2.7381 30H6.47838C6.88602 30 7.21648 29.6619 7.21648 29.2447Z" fill="#030E31"/>
<path d="M24.7835 29.2447V28.619C24.7835 28.2019 25.114 27.8637 25.5216 27.8637H26.437L23.3753 24.7308C23.087 24.4359 23.087 23.9577 23.3753 23.6627L23.8068 23.2212H24.8506L27.9123 26.3541V25.4118C27.9123 24.9947 28.2428 24.6565 28.6504 24.6565H29.2619C29.6695 24.6565 30 24.9947 30 25.4118V29.2447C30 29.6619 29.6695 30 29.2619 30H25.5216C25.114 30 24.7835 29.6619 24.7835 29.2447Z" fill="#030E31"/>
<path d="M7.21648 2.75527V3.38099C7.21648 3.79811 6.88602 4.13626 6.47838 4.13626H5.56302L8.62472 7.26917C8.91297 7.56412 8.91297 8.04233 8.62472 8.33728L8.19325 8.77879C7.905 9.07374 7.43766 9.07374 7.14941 8.77879L4.0877 5.64588V6.58822C4.0877 7.00534 3.75725 7.34349 3.3496 7.34349H2.7381C2.33046 7.34349 2 7.00534 2 6.58822V2.75527C2 2.33814 2.33046 2 2.7381 2H6.47838C6.88602 2 7.21648 2.33814 7.21648 2.75527Z" fill="#030E31"/>
<path d="M24.7835 2.75527V3.38099C24.7835 3.79811 25.114 4.13626 25.5216 4.13626H26.437L23.3753 7.26917C23.087 7.56412 23.087 8.04233 23.3753 8.33728L23.8068 8.77879C24.095 9.07374 24.5623 9.07374 24.8506 8.77879L27.9123 5.64588V6.58822C27.9123 7.00534 28.2428 7.34349 28.6504 7.34349H29.2619C29.6695 7.34349 30 7.00534 30 6.58822V2.75527C30 2.33814 29.6695 2 29.2619 2H25.5216C25.114 2 24.7835 2.33814 24.7835 2.75527Z" fill="#030E31"/>
<path fill-rule="evenodd" clip-rule="evenodd" d="M7.1419 17.137C7.04758 16.7082 7 16.2533 7 15.7802C7 11.4902 11.1481 8 16.2466 8C21.3488 8 25.4979 11.178 25.4999 15.7802C25.5019 20.3842 21.0593 23.5282 16.2466 23.5669C11.8271 23.6026 7.91704 20.8628 7.1419 17.137ZM9.926 15.7835C9.926 14.8853 10.6575 14.1545 11.5561 14.1545C12.4548 14.1545 13.1863 14.8853 13.1863 15.7835C13.1863 16.6819 12.4548 17.4128 11.5561 17.4128C10.6575 17.4128 9.926 16.6819 9.926 15.7835ZM22.5739 15.7835C22.5739 16.6819 21.8424 17.4128 20.9438 17.4128C20.0451 17.4128 19.3136 16.6819 19.3136 15.7835C19.3136 14.8853 20.0451 14.1545 20.9438 14.1545C21.8424 14.1545 22.5739 14.8853 22.5739 15.7835ZM16.2502 14.1545C17.1488 14.1545 17.8799 14.8853 17.8799 15.7835C17.8799 16.6819 17.1488 17.4128 16.2502 17.4128C15.3515 17.4128 14.62 16.6819 14.62 15.7835C14.62 14.8853 15.3515 14.1545 16.2502 14.1545Z" fill="#030E31"/>
<path d="M18.846 22.5514C18.8996 22.4696 18.9802 22.4106 19.0741 22.3848C18.0922 21.9736 15.7137 21.3414 14.0553 22.1027C14.177 22.1457 14.2743 22.243 14.3204 22.3657C14.6274 23.189 15.0347 23.9909 15.5304 24.7487C15.9673 25.4149 16.4623 26.0324 17.0075 26.5915C17.211 25.8631 17.4726 25.1497 17.7882 24.4632C18.0834 23.8162 18.4394 23.1731 18.846 22.5514Z" fill="#030E31"/>
</svg>
